<svg id="visual" viewBox="0 0 960 540" width="960" height="540" xmlns="http://www.w3.org/2000/svg" xmlns:xlink="http://www.w3.org/1999/xlink" version="1.1"><g stroke-width="1" stroke-linejoin="bevel"><path d="M490.3 265L533.3 313L589 244Z" fill="#f8b2d8" stroke="#FFFFFF"></path><path d="M589 244L573 192L490.3 265Z" fill="#ffb9b5" stroke="#FFFFFF"></path><path d="M573 192L431.7 199L490.3 265Z" fill="#edb3e3" stroke="#FFFFFF"></path><path d="M533.3 313L659 312L589 244Z" fill="#ffb5c0" stroke="#FFFFFF"></path><path d="M589 244L609 144L573 192Z" fill="#f8b2d8" stroke="#FFFFFF"></path><path d="M731.7 285L609 144L589 244Z" fill="#ffb5c0" stroke="#FFFFFF"></path><path d="M573 192L531.3 80L431.7 199Z" fill="#ffbeac" stroke="#FFFFFF"></path><path d="M490.3 265L443.7 370L533.3 313Z" fill="#ffc3a4" stroke="#FFFFFF"></path><path d="M533.3 313L685.7 446L659 312Z" fill="#deb5ed" stroke="#FFFFFF"></path><path d="M398 324L443.7 370L490.3 265Z" fill="#deb5ed" stroke="#FFFFFF"></path><path d="M659 312L683.7 303L589 244Z" fill="#fcca9f" stroke="#FFFFFF"></path><path d="M609 144L594.3 120L573 192Z" fill="#ffb5c0" stroke="#FFFFFF"></path><path d="M431.7 199L398 324L490.3 265Z" fill="#fcca9f" stroke="#FFFFFF"></path><path d="M387 140L394 185L431.7 199Z" fill="#ffb5c0" stroke="#FFFFFF"></path><path d="M431.7 199L372.7 212L398 324Z" fill="#ccb8f6" stroke="#FFFFFF"></path><path d="M394 185L372.7 212L431.7 199Z" fill="#f8b2d8" stroke="#FFFFFF"></path><path d="M594.3 120L531.3 80L573 192Z" fill="#b7bbfc" stroke="#FFFFFF"></path><path d="M683.7 303L731.7 285L589 244Z" fill="#ffbeac" stroke="#FFFFFF"></path><path d="M666.7 0L631 0L594.3 120Z" fill="#deb5ed" stroke="#FFFFFF"></path><path d="M531.3 80L387 140L431.7 199Z" fill="#b7bbfc" stroke="#FFFFFF"></path><path d="M394 185L364.7 141L372.7 212Z" fill="#ffbeac" stroke="#FFFFFF"></path><path d="M346 400L440.7 436L443.7 370Z" fill="#f8b2d8" stroke="#FFFFFF"></path><path d="M443.7 370L440.7 436L533.3 313Z" fill="#ffb5c0" stroke="#FFFFFF"></path><path d="M659 312L685.7 446L683.7 303Z" fill="#b7bbfc" stroke="#FFFFFF"></path><path d="M683.7 303L685.7 446L731.7 285Z" fill="#ffbeac" stroke="#FFFFFF"></path><path d="M363 0L364.7 141L387 140Z" fill="#f8b2d8" stroke="#FFFFFF"></path><path d="M387 140L364.7 141L394 185Z" fill="#ffb3cc" stroke="#FFFFFF"></path><path d="M571 522L685.7 446L533.3 313Z" fill="#ffb3cc" stroke="#FFFFFF"></path><path d="M274.3 352L346 400L398 324Z" fill="#ccb8f6" stroke="#FFFFFF"></path><path d="M398 324L346 400L443.7 370Z" fill="#ffb5c0" stroke="#FFFFFF"></path><path d="M274.3 352L398 324L259 309Z" fill="#deb5ed" stroke="#FFFFFF"></path><path d="M484.7 540L495.3 518L440.7 436Z" fill="#ffbeac" stroke="#FFFFFF"></path><path d="M440.7 436L571 522L533.3 313Z" fill="#edb3e3" stroke="#FFFFFF"></path><path d="M495.3 518L571 522L440.7 436Z" fill="#ccb8f6" stroke="#FFFFFF"></path><path d="M631 0L460.3 0L531.3 80Z" fill="#ffc3a4" stroke="#FFFFFF"></path><path d="M531.3 80L460.3 0L387 140Z" fill="#deb5ed" stroke="#FFFFFF"></path><path d="M808.7 109L787.7 140L868.3 166Z" fill="#ffc3a4" stroke="#FFFFFF"></path><path d="M731.7 285L787.7 140L609 144Z" fill="#ffbeac" stroke="#FFFFFF"></path><path d="M594.3 120L631 0L531.3 80Z" fill="#ffbeac" stroke="#FFFFFF"></path><path d="M666.7 0L594.3 120L609 144Z" fill="#ffb5c0" stroke="#FFFFFF"></path><path d="M495.3 518L568.3 540L571 522Z" fill="#edb3e3" stroke="#FFFFFF"></path><path d="M571 522L604 540L685.7 446Z" fill="#ffb3cc" stroke="#FFFFFF"></path><path d="M259 309L398 324L372.7 212Z" fill="#ccb8f6" stroke="#FFFFFF"></path><path d="M276 540L484.7 540L440.7 436Z" fill="#f8b2d8" stroke="#FFFFFF"></path><path d="M276 540L440.7 436L346 400Z" fill="#ffb3cc" stroke="#FFFFFF"></path><path d="M495.3 518L484.7 540L568.3 540Z" fill="#ffbeac" stroke="#FFFFFF"></path><path d="M568.3 540L604 540L571 522Z" fill="#ffb3cc" stroke="#FFFFFF"></path><path d="M207.3 114L259 309L372.7 212Z" fill="#ffc3a4" stroke="#FFFFFF"></path><path d="M787.7 140L666.7 0L609 144Z" fill="#b7bbfc" stroke="#FFFFFF"></path><path d="M460.3 0L384.7 0L387 140Z" fill="#f8b2d8" stroke="#FFFFFF"></path><path d="M364.7 141L207.3 114L372.7 212Z" fill="#ccb8f6" stroke="#FFFFFF"></path><path d="M859.3 228L787.7 140L731.7 285Z" fill="#ffbeac" stroke="#FFFFFF"></path><path d="M787.7 140L808.7 109L666.7 0Z" fill="#ffb5c0" stroke="#FFFFFF"></path><path d="M384.7 0L363 0L387 140Z" fill="#b7bbfc" stroke="#FFFFFF"></path><path d="M845.3 390L859.3 228L731.7 285Z" fill="#b7bbfc" stroke="#FFFFFF"></path><path d="M719.7 540L845.3 390L685.7 446Z" fill="#edb3e3" stroke="#FFFFFF"></path><path d="M685.7 446L845.3 390L731.7 285Z" fill="#ffbeac" stroke="#FFFFFF"></path><path d="M604 540L719.7 540L685.7 446Z" fill="#ffc3a4" stroke="#FFFFFF"></path><path d="M859.3 228L868.3 166L787.7 140Z" fill="#ffc3a4" stroke="#FFFFFF"></path><path d="M884.3 163L868.3 166L859.3 228Z" fill="#ffb3cc" stroke="#FFFFFF"></path><path d="M960 212L884.3 163L859.3 228Z" fill="#ccb8f6" stroke="#FFFFFF"></path><path d="M868.3 166L884.3 163L808.7 109Z" fill="#f8b2d8" stroke="#FFFFFF"></path><path d="M808.7 109L798.3 0L666.7 0Z" fill="#b7bbfc" stroke="#FFFFFF"></path><path d="M363 0L207.3 114L364.7 141Z" fill="#fcca9f" stroke="#FFFFFF"></path><path d="M960 0L798.3 0L808.7 109Z" fill="#ffb5c0" stroke="#FFFFFF"></path><path d="M175.7 0L191.3 122L207.3 114Z" fill="#fcca9f" stroke="#FFFFFF"></path><path d="M207.3 114L155.7 227L259 309Z" fill="#ffc3a4" stroke="#FFFFFF"></path><path d="M175.7 468L268.3 526L274.3 352Z" fill="#ffb5c0" stroke="#FFFFFF"></path><path d="M274.3 352L268.3 526L346 400Z" fill="#edb3e3" stroke="#FFFFFF"></path><path d="M175.7 468L274.3 352L120.7 408Z" fill="#deb5ed" stroke="#FFFFFF"></path><path d="M268.3 526L276 540L346 400Z" fill="#ffc3a4" stroke="#FFFFFF"></path><path d="M168.7 148L155.7 227L207.3 114Z" fill="#ffbeac" stroke="#FFFFFF"></path><path d="M191.3 122L168.7 148L207.3 114Z" fill="#b7bbfc" stroke="#FFFFFF"></path><path d="M960 438L917.3 385L845.3 390Z" fill="#fcca9f" stroke="#FFFFFF"></path><path d="M845.3 390L917.3 385L859.3 228Z" fill="#deb5ed" stroke="#FFFFFF"></path><path d="M168.7 148L142.3 226L155.7 227Z" fill="#ffb3cc" stroke="#FFFFFF"></path><path d="M120.7 408L274.3 352L259 309Z" fill="#b7bbfc" stroke="#FFFFFF"></path><path d="M917.3 385L960 252L859.3 228Z" fill="#ffc3a4" stroke="#FFFFFF"></path><path d="M884.3 163L960 95L808.7 109Z" fill="#deb5ed" stroke="#FFFFFF"></path><path d="M120.7 408L259 309L155.7 227Z" fill="#ffbeac" stroke="#FFFFFF"></path><path d="M268.3 526L198.3 540L276 540Z" fill="#b7bbfc" stroke="#FFFFFF"></path><path d="M960 252L960 212L859.3 228Z" fill="#ffb5c0" stroke="#FFFFFF"></path><path d="M960 438L960 388L917.3 385Z" fill="#f8b2d8" stroke="#FFFFFF"></path><path d="M917.3 385L960 388L960 252Z" fill="#fcca9f" stroke="#FFFFFF"></path><path d="M168.7 148L101.7 231L142.3 226Z" fill="#deb5ed" stroke="#FFFFFF"></path><path d="M142.3 226L120.7 408L155.7 227Z" fill="#ffbeac" stroke="#FFFFFF"></path><path d="M175.7 468L198.3 540L268.3 526Z" fill="#b7bbfc" stroke="#FFFFFF"></path><path d="M719.7 540L888.3 540L845.3 390Z" fill="#ffbeac" stroke="#FFFFFF"></path><path d="M101.7 231L120.7 408L142.3 226Z" fill="#b7bbfc" stroke="#FFFFFF"></path><path d="M175.7 468L149.7 540L198.3 540Z" fill="#b7bbfc" stroke="#FFFFFF"></path><path d="M0 202L0 239L101.7 231Z" fill="#b7bbfc" stroke="#FFFFFF"></path><path d="M191.3 122L175.7 0L168.7 148Z" fill="#edb3e3" stroke="#FFFFFF"></path><path d="M363 0L179.3 0L207.3 114Z" fill="#f8b2d8" stroke="#FFFFFF"></path><path d="M179.3 0L175.7 0L207.3 114Z" fill="#ffb3cc" stroke="#FFFFFF"></path><path d="M960 212L960 95L884.3 163Z" fill="#ccb8f6" stroke="#FFFFFF"></path><path d="M888.3 540L960 438L845.3 390Z" fill="#edb3e3" stroke="#FFFFFF"></path><path d="M120.7 408L149.7 540L175.7 468Z" fill="#ffb9b5" stroke="#FFFFFF"></path><path d="M960 95L960 0L808.7 109Z" fill="#ccb8f6" stroke="#FFFFFF"></path><path d="M888.3 540L960 540L960 438Z" fill="#b7bbfc" stroke="#FFFFFF"></path><path d="M0 202L101.7 231L168.7 148Z" fill="#ffc3a4" stroke="#FFFFFF"></path><path d="M101.7 231L0 307L120.7 408Z" fill="#ffc3a4" stroke="#FFFFFF"></path><path d="M120.7 408L0 540L149.7 540Z" fill="#ccb8f6" stroke="#FFFFFF"></path><path d="M0 239L0 307L101.7 231Z" fill="#ccb8f6" stroke="#FFFFFF"></path><path d="M0 17L0 202L168.7 148Z" fill="#deb5ed" stroke="#FFFFFF"></path><path d="M0 307L0 387L120.7 408Z" fill="#ffb5c0" stroke="#FFFFFF"></path><path d="M175.7 0L0 17L168.7 148Z" fill="#edb3e3" stroke="#FFFFFF"></path><path d="M175.7 0L0 0L0 17Z" fill="#b7bbfc" stroke="#FFFFFF"></path><path d="M0 387L0 540L120.7 408Z" fill="#deb5ed" stroke="#FFFFFF"></path></g></svg>